<?xml version="1.0" encoding="utf-8"?>
<!-- Generator: Adobe Illustrator 16.0.0, SVG Export Plug-In . SVG Version: 6.00 Build 0)  -->
<!DOCTYPE svg PUBLIC "-//W3C//DTD SVG 1.1//EN" "http://www.w3.org/Graphics/SVG/1.1/DTD/svg11.dtd">
<svg version="1.1" id="Layer_2" xmlns="http://www.w3.org/2000/svg" xmlns:xlink="http://www.w3.org/1999/xlink" x="0px" y="0px"
	 width="100px" height="100px" viewBox="0 0 100 100" enable-background="new 0 0 100 100" xml:space="preserve">
<g id="Horizontal">
	<g>
		<path fill="none" stroke="#0000FF" stroke-miterlimit="10" d="M-1.001,102.006c8.333,0,8.333,8,16.666,8c8.331,0,8.331-8,16.661-8
			c8.333,0,8.333,8,16.667,8c8.334,0,8.334-8,16.667-8c8.335,0,8.335,8,16.67,8s8.335-8,16.67-8"/>
	</g>
	<g>
		<path fill="none" stroke="#0000FF" stroke-miterlimit="10" d="M-1.001,98.886c8.333,0,8.333,8,16.666,8c8.331,0,8.331-8,16.661-8
			c8.333,0,8.333,8,16.667,8c8.334,0,8.334-8,16.667-8c8.335,0,8.335,8,16.67,8s8.335-8,16.67-8"/>
	</g>
	<g>
		<path fill="none" stroke="#0000FF" stroke-miterlimit="10" d="M-1.001,95.764c8.333,0,8.333,8,16.666,8c8.331,0,8.331-8,16.661-8
			c8.333,0,8.333,8,16.667,8c8.334,0,8.334-8,16.667-8c8.335,0,8.335,8,16.67,8s8.335-8,16.67-8"/>
	</g>
	<g>
		<path fill="none" stroke="#0000FF" stroke-miterlimit="10" d="M-1.001,92.643c8.333,0,8.333,8,16.666,8c8.331,0,8.331-8,16.661-8
			c8.333,0,8.333,8,16.667,8c8.334,0,8.334-8,16.667-8c8.335,0,8.335,8,16.67,8s8.335-8,16.67-8"/>
	</g>
	<g>
		<path fill="none" stroke="#0000FF" stroke-miterlimit="10" d="M-1.001,89.522c8.333,0,8.333,8,16.666,8c8.331,0,8.331-8,16.661-8
			c8.333,0,8.333,8,16.667,8c8.334,0,8.334-8,16.667-8c8.335,0,8.335,8,16.67,8s8.335-8,16.67-8"/>
	</g>
	<g>
		<path fill="none" stroke="#0000FF" stroke-miterlimit="10" d="M-1,86.401c8.333,0,8.333,8,16.666,8c8.331,0,8.331-8,16.661-8
			c8.333,0,8.333,8,16.667,8s8.333-8,16.667-8c8.335,0,8.335,8,16.67,8s8.335-8,16.67-8"/>
	</g>
	<g>
		<path fill="none" stroke="#0000FF" stroke-miterlimit="10" d="M-1.001,83.28c8.333,0,8.333,8,16.666,8c8.331,0,8.331-8,16.661-8
			c8.333,0,8.333,8,16.667,8c8.334,0,8.334-8,16.667-8c8.335,0,8.335,8,16.67,8s8.335-8,16.67-8"/>
	</g>
	<g>
		<path fill="none" stroke="#0000FF" stroke-miterlimit="10" d="M-1.001,80.158c8.333,0,8.333,8,16.666,8c8.331,0,8.331-8,16.661-8
			c8.333,0,8.333,8,16.667,8s8.333-8,16.667-8c8.335,0,8.335,8,16.67,8s8.335-8,16.67-8"/>
	</g>
	<g>
		<path fill="none" stroke="#0000FF" stroke-miterlimit="10" d="M-1.001,77.038c8.333,0,8.333,8,16.666,8c8.331,0,8.331-8,16.661-8
			c8.333,0,8.333,8,16.667,8c8.334,0,8.334-8,16.667-8c8.335,0,8.335,8,16.67,8s8.335-8,16.67-8"/>
	</g>
	<g>
		<path fill="none" stroke="#0000FF" stroke-miterlimit="10" d="M-1.001,73.917c8.333,0,8.333,8,16.666,8c8.331,0,8.331-8,16.661-8
			c8.333,0,8.333,8,16.667,8c8.334,0,8.334-8,16.667-8c8.335,0,8.335,8,16.67,8s8.335-8,16.67-8"/>
	</g>
	<g>
		<path fill="none" stroke="#0000FF" stroke-miterlimit="10" d="M-1.001,70.797c8.333,0,8.333,8,16.666,8c8.331,0,8.331-8,16.661-8
			c8.333,0,8.333,8,16.667,8c8.334,0,8.334-8,16.667-8c8.335,0,8.335,8,16.67,8s8.335-8,16.67-8"/>
	</g>
	<g>
		<path fill="none" stroke="#0000FF" stroke-miterlimit="10" d="M-1.001,67.675c8.333,0,8.333,8,16.666,8c8.331,0,8.331-8,16.661-8
			c8.333,0,8.333,8,16.667,8c8.334,0,8.334-8,16.667-8c8.335,0,8.335,8,16.67,8s8.335-8,16.67-8"/>
	</g>
	<g>
		<path fill="none" stroke="#0000FF" stroke-miterlimit="10" d="M-1.001,64.555c8.333,0,8.333,8,16.666,8c8.331,0,8.331-8,16.661-8
			c8.333,0,8.333,8,16.667,8c8.334,0,8.334-8,16.667-8c8.335,0,8.335,8,16.67,8s8.335-8,16.67-8"/>
	</g>
	<g>
		<path fill="none" stroke="#0000FF" stroke-miterlimit="10" d="M-1,61.434c8.333,0,8.333,8,16.666,8c8.33,0,8.33-8,16.661-8
			c8.333,0,8.333,8,16.667,8c8.334,0,8.334-8,16.667-8c8.335,0,8.335,8,16.67,8s8.335-8,16.67-8"/>
	</g>
	<g>
		<path fill="none" stroke="#0000FF" stroke-miterlimit="10" d="M-1.001,58.312c8.333,0,8.333,8,16.666,8c8.331,0,8.331-8,16.661-8
			c8.333,0,8.333,8,16.667,8c8.334,0,8.334-8,16.667-8c8.335,0,8.335,8,16.67,8s8.335-8,16.67-8"/>
	</g>
	<g>
		<path fill="none" stroke="#0000FF" stroke-miterlimit="10" d="M-1.001,55.19c8.333,0,8.333,8.001,16.666,8.001
			c8.331,0,8.331-8.001,16.661-8.001c8.333,0,8.333,8.001,16.667,8.001s8.333-8.001,16.667-8.001c8.335,0,8.335,8.001,16.67,8.001
			s8.335-8.001,16.67-8.001"/>
	</g>
	<g>
		<path fill="none" stroke="#0000FF" stroke-miterlimit="10" d="M-1.001,52.07c8.333,0,8.333,8,16.666,8c8.331,0,8.331-8,16.661-8
			c8.333,0,8.333,8,16.667,8c8.334,0,8.334-8,16.667-8c8.335,0,8.335,8,16.67,8s8.335-8,16.67-8"/>
	</g>
	<g>
		<path fill="none" stroke="#0000FF" stroke-miterlimit="10" d="M-1.001,48.949c8.333,0,8.333,8,16.666,8c8.331,0,8.331-8,16.661-8
			c8.333,0,8.333,8,16.667,8c8.334,0,8.334-8,16.667-8c8.335,0,8.335,8,16.67,8s8.335-8,16.67-8"/>
	</g>
	<g>
		<path fill="none" stroke="#0000FF" stroke-miterlimit="10" d="M-1.001,45.828c8.333,0,8.333,8,16.666,8c8.331,0,8.331-8,16.661-8
			c8.333,0,8.333,8,16.667,8c8.334,0,8.334-8,16.667-8c8.335,0,8.335,8,16.67,8s8.335-8,16.67-8"/>
	</g>
	<g>
		<path fill="none" stroke="#0000FF" stroke-miterlimit="10" d="M-1.001,42.707c8.333,0,8.333,8,16.666,8c8.331,0,8.331-8,16.661-8
			c8.333,0,8.333,8,16.667,8c8.334,0,8.334-8,16.667-8c8.335,0,8.335,8,16.67,8s8.335-8,16.67-8"/>
	</g>
	<g>
		<path fill="none" stroke="#0000FF" stroke-miterlimit="10" d="M-1.001,39.587c8.333,0,8.333,8,16.666,8c8.331,0,8.331-8,16.661-8
			c8.333,0,8.333,8,16.667,8c8.334,0,8.334-8,16.667-8c8.335,0,8.335,8,16.67,8s8.335-8,16.67-8"/>
	</g>
	<g>
		<path fill="none" stroke="#0000FF" stroke-miterlimit="10" d="M-1.001,36.465c8.333,0,8.333,8,16.666,8c8.331,0,8.331-8,16.661-8
			c8.333,0,8.333,8,16.667,8c8.334,0,8.334-8,16.667-8c8.335,0,8.335,8,16.67,8s8.335-8,16.67-8"/>
	</g>
	<g>
		<path fill="none" stroke="#0000FF" stroke-miterlimit="10" d="M-1.001,33.345c8.333,0,8.333,8,16.666,8c8.331,0,8.331-8,16.661-8
			c8.333,0,8.333,8,16.667,8c8.334,0,8.334-8,16.667-8c8.335,0,8.335,8,16.67,8s8.335-8,16.67-8"/>
	</g>
	<g>
		<path fill="none" stroke="#0000FF" stroke-miterlimit="10" d="M-1.001,30.224c8.333,0,8.333,8,16.666,8c8.331,0,8.331-8,16.661-8
			c8.333,0,8.333,8,16.667,8c8.334,0,8.334-8,16.667-8c8.335,0,8.335,8,16.67,8s8.335-8,16.67-8"/>
	</g>
	<g>
		<path fill="none" stroke="#0000FF" stroke-miterlimit="10" d="M-1.001,27.103c8.333,0,8.333,8,16.666,8c8.331,0,8.331-8,16.661-8
			c8.333,0,8.333,8,16.667,8c8.334,0,8.334-8,16.667-8c8.335,0,8.335,8,16.67,8s8.335-8,16.67-8"/>
	</g>
	<g>
		<path fill="none" stroke="#0000FF" stroke-miterlimit="10" d="M-1.001,23.981c8.333,0,8.333,8,16.666,8c8.331,0,8.331-8,16.661-8
			c8.333,0,8.333,8,16.667,8c8.334,0,8.334-8,16.667-8c8.335,0,8.335,8,16.67,8s8.335-8,16.67-8"/>
	</g>
	<g>
		<path fill="none" stroke="#0000FF" stroke-miterlimit="10" d="M-1.001,20.86c8.333,0,8.333,8,16.666,8c8.331,0,8.331-8,16.661-8
			c8.333,0,8.333,8,16.667,8c8.334,0,8.334-8,16.667-8c8.335,0,8.335,8,16.67,8s8.335-8,16.67-8"/>
	</g>
	<g>
		<path fill="none" stroke="#0000FF" stroke-miterlimit="10" d="M-1.001,17.74c8.333,0,8.333,8,16.666,8c8.331,0,8.331-8,16.661-8
			c8.333,0,8.333,8,16.667,8c8.334,0,8.334-8,16.667-8c8.335,0,8.335,8,16.67,8s8.335-8,16.67-8"/>
	</g>
	<g>
		<path fill="none" stroke="#0000FF" stroke-miterlimit="10" d="M-1.001,14.619c8.333,0,8.333,8,16.666,8c8.331,0,8.331-8,16.661-8
			c8.333,0,8.333,8,16.667,8c8.334,0,8.334-8,16.667-8c8.335,0,8.335,8,16.67,8s8.335-8,16.67-8"/>
	</g>
	<g>
		<path fill="none" stroke="#0000FF" stroke-miterlimit="10" d="M-1.001,11.498c8.333,0,8.333,8,16.666,8c8.331,0,8.331-8,16.661-8
			c8.333,0,8.333,8,16.667,8c8.334,0,8.334-8,16.667-8c8.335,0,8.335,8,16.67,8s8.335-8,16.67-8"/>
	</g>
	<g>
		<path fill="none" stroke="#0000FF" stroke-miterlimit="10" d="M-1.001,8.377c8.333,0,8.333,8,16.666,8c8.331,0,8.331-8,16.661-8
			c8.333,0,8.333,8,16.667,8c8.334,0,8.334-8,16.667-8c8.335,0,8.335,8,16.67,8s8.335-8,16.67-8"/>
	</g>
	<g>
		<path fill="none" stroke="#0000FF" stroke-miterlimit="10" d="M-1.001,5.256c8.333,0,8.333,8,16.666,8c8.331,0,8.331-8,16.661-8
			c8.333,0,8.333,8,16.667,8c8.334,0,8.334-8,16.667-8c8.335,0,8.335,8,16.67,8s8.335-8,16.67-8"/>
	</g>
</g>
<g id="Vertical">
	<g>
		<path fill="none" stroke="#0000FF" stroke-miterlimit="10" d="M6.625,3.003c0,8.333-8,8.333-8,16.665c0,8.331,8,8.331,8,16.661
			c0,8.333-8,8.333-8,16.667s8,8.334,8,16.667c0,8.335-8,8.335-8,16.67s8,8.335,8,16.67"/>
	</g>
	<g>
		<path fill="none" stroke="#0000FF" stroke-miterlimit="10" d="M11.231,3.003c0,8.333-8,8.333-8,16.665c0,8.331,8,8.331,8,16.661
			c0,8.333-8,8.333-8,16.667s8,8.334,8,16.667c0,8.335-8,8.335-8,16.67s8,8.335,8,16.67"/>
	</g>
	<g>
		<path fill="none" stroke="#0000FF" stroke-miterlimit="10" d="M15.839,3.003c0,8.333-8,8.333-8,16.665c0,8.331,8,8.331,8,16.661
			c0,8.333-8,8.333-8,16.667s8,8.334,8,16.667c0,8.335-8,8.335-8,16.67s8,8.335,8,16.67"/>
	</g>
	<g>
		<path fill="none" stroke="#0000FF" stroke-miterlimit="10" d="M20.446,3.003c0,8.333-8,8.333-8,16.665c0,8.331,8,8.331,8,16.661
			c0,8.333-8,8.333-8,16.667s8,8.334,8,16.667c0,8.335-8,8.335-8,16.67s8,8.335,8,16.67"/>
	</g>
	<g>
		<path fill="none" stroke="#0000FF" stroke-miterlimit="10" d="M25.053,3.003c0,8.333-8,8.333-8,16.665c0,8.331,8,8.331,8,16.661
			c0,8.333-8,8.333-8,16.667s8,8.334,8,16.667c0,8.335-8,8.335-8,16.67s8,8.335,8,16.67"/>
	</g>
	<g>
		<path fill="none" stroke="#0000FF" stroke-miterlimit="10" d="M29.66,3.003c0,8.333-8,8.333-8,16.665c0,8.331,8,8.331,8,16.661
			c0,8.333-8,8.333-8,16.667s8,8.334,8,16.667c0,8.335-8,8.335-8,16.67s8,8.335,8,16.67"/>
	</g>
	<g>
		<path fill="none" stroke="#0000FF" stroke-miterlimit="10" d="M34.268,3.003c0,8.333-8,8.333-8,16.665c0,8.331,8,8.331,8,16.661
			c0,8.333-8,8.333-8,16.667s8,8.334,8,16.667c0,8.335-8,8.335-8,16.67s8,8.335,8,16.67"/>
	</g>
	<g>
		<path fill="none" stroke="#0000FF" stroke-miterlimit="10" d="M38.875,3.003c0,8.333-8,8.333-8,16.665c0,8.331,8,8.331,8,16.661
			c0,8.333-8,8.333-8,16.667s8,8.334,8,16.667c0,8.335-8,8.335-8,16.67s8,8.335,8,16.67"/>
	</g>
	<g>
		<path fill="none" stroke="#0000FF" stroke-miterlimit="10" d="M43.482,3.003c0,8.333-8,8.333-8,16.665c0,8.331,8,8.331,8,16.661
			c0,8.333-8,8.333-8,16.667s8,8.334,8,16.667c0,8.335-8,8.335-8,16.67s8,8.335,8,16.67"/>
	</g>
	<g>
		<path fill="none" stroke="#0000FF" stroke-miterlimit="10" d="M48.089,3.003c0,8.333-8,8.333-8,16.665c0,8.331,8,8.331,8,16.661
			c0,8.333-8,8.333-8,16.667s8,8.334,8,16.667c0,8.335-8,8.335-8,16.67s8,8.335,8,16.67"/>
	</g>
	<g>
		<path fill="none" stroke="#0000FF" stroke-miterlimit="10" d="M52.696,3.003c0,8.333-8,8.333-8,16.665c0,8.331,8,8.331,8,16.661
			c0,8.333-8,8.333-8,16.667s8,8.334,8,16.667c0,8.335-8,8.335-8,16.67s8,8.335,8,16.67"/>
	</g>
	<g>
		<path fill="none" stroke="#0000FF" stroke-miterlimit="10" d="M57.304,3.003c0,8.333-8,8.333-8,16.665c0,8.331,8,8.331,8,16.661
			c0,8.333-8,8.333-8,16.667s8,8.334,8,16.667c0,8.335-8,8.335-8,16.67s8,8.335,8,16.67"/>
	</g>
	<g>
		<path fill="none" stroke="#0000FF" stroke-miterlimit="10" d="M61.91,3.003c0,8.333-8,8.333-8,16.665c0,8.331,8,8.331,8,16.661
			c0,8.333-8,8.333-8,16.667s8,8.334,8,16.667c0,8.335-8,8.335-8,16.67s8,8.335,8,16.67"/>
	</g>
	<g>
		<path fill="none" stroke="#0000FF" stroke-miterlimit="10" d="M66.518,3.003c0,8.333-8,8.333-8,16.665c0,8.331,8,8.331,8,16.661
			c0,8.333-8,8.333-8,16.667s8,8.334,8,16.667c0,8.335-8,8.335-8,16.67s8,8.335,8,16.67"/>
	</g>
	<g>
		<path fill="none" stroke="#0000FF" stroke-miterlimit="10" d="M71.125,3.003c0,8.333-8,8.333-8,16.665c0,8.331,8,8.331,8,16.661
			c0,8.333-8,8.333-8,16.667s8,8.334,8,16.667c0,8.335-8,8.335-8,16.67s8,8.335,8,16.67"/>
	</g>
	<g>
		<path fill="none" stroke="#0000FF" stroke-miterlimit="10" d="M75.732,3.003c0,8.333-8,8.333-8,16.665c0,8.331,8,8.331,8,16.661
			c0,8.333-8,8.333-8,16.667s8,8.334,8,16.667c0,8.335-8,8.335-8,16.67s8,8.335,8,16.67"/>
	</g>
	<g>
		<path fill="none" stroke="#0000FF" stroke-miterlimit="10" d="M80.339,3.003c0,8.333-8,8.333-8,16.665c0,8.331,8,8.331,8,16.661
			c0,8.333-8,8.333-8,16.667s8,8.334,8,16.667c0,8.335-8,8.335-8,16.67s8,8.335,8,16.67"/>
	</g>
	<g>
		<path fill="none" stroke="#0000FF" stroke-miterlimit="10" d="M84.946,3.003c0,8.333-8,8.333-8,16.665c0,8.331,8,8.331,8,16.661
			c0,8.333-8,8.333-8,16.667s8,8.334,8,16.667c0,8.335-8,8.335-8,16.67s8,8.335,8,16.67"/>
	</g>
	<g>
		<path fill="none" stroke="#0000FF" stroke-miterlimit="10" d="M89.554,3.003c0,8.333-8,8.333-8,16.665c0,8.331,8,8.331,8,16.661
			c0,8.333-8,8.333-8,16.667s8,8.334,8,16.667c0,8.335-8,8.335-8,16.67s8,8.335,8,16.67"/>
	</g>
	<g>
		<path fill="none" stroke="#0000FF" stroke-miterlimit="10" d="M94.161,3.003c0,8.333-8,8.333-8,16.665c0,8.331,8,8.331,8,16.661
			c0,8.333-8,8.333-8,16.667s8,8.334,8,16.667c0,8.335-8,8.335-8,16.67s8,8.335,8,16.67"/>
	</g>
	<g>
		<path fill="none" stroke="#0000FF" stroke-miterlimit="10" d="M98.768,3.003c0,8.333-8,8.333-8,16.665c0,8.331,8,8.331,8,16.661
			c0,8.333-8,8.333-8,16.667s8,8.334,8,16.667c0,8.335-8,8.335-8,16.67s8,8.335,8,16.67"/>
	</g>
	<g>
		<path fill="none" stroke="#0000FF" stroke-miterlimit="10" d="M103.375,3.003c0,8.333-8,8.333-8,16.665c0,8.331,8,8.331,8,16.661
			c0,8.333-8,8.333-8,16.667s8,8.334,8,16.667c0,8.335-8,8.335-8,16.67s8,8.335,8,16.67"/>
	</g>
</g>
<path id="white" fill="#FFFFFF" d="M0,0v100h100V0H0z M49.5,84.5c-23.334,0-42.25-6.548-42.25-14.625S26.166,55.25,49.5,55.25
	s42.25,6.548,42.25,14.625S72.834,84.5,49.5,84.5z"/>
</svg>
