<?xml version="1.0" encoding="utf-8"?>
<!-- Generator: Adobe Illustrator 16.0.0, SVG Export Plug-In . SVG Version: 6.00 Build 0)  -->
<!DOCTYPE svg PUBLIC "-//W3C//DTD SVG 1.1//EN" "http://www.w3.org/Graphics/SVG/1.1/DTD/svg11.dtd">
<svg version="1.1" id="Layer_1" xmlns="http://www.w3.org/2000/svg" xmlns:xlink="http://www.w3.org/1999/xlink" x="0px" y="0px"
	 width="100px" height="100px" viewBox="0 0 100 100" enable-background="new 0 0 100 100" xml:space="preserve">
<g>
	<linearGradient id="SVGID_1_" gradientUnits="userSpaceOnUse" x1="-0.1699" y1="78.457" x2="99.876" y2="78.457">
		<stop  offset="0" style="stop-color:#00B2EF"/>
		<stop  offset="0.0444" style="stop-color:#00A9E5"/>
		<stop  offset="0.2551" style="stop-color:#0082BC"/>
		<stop  offset="0.4607" style="stop-color:#00649B"/>
		<stop  offset="0.6575" style="stop-color:#004F84"/>
		<stop  offset="0.8415" style="stop-color:#004176"/>
		<stop  offset="1" style="stop-color:#003D71"/>
	</linearGradient>
	<polygon fill-rule="evenodd" clip-rule="evenodd" fill="url(#SVGID_1_)" points="99.876,89.695 -0.17,89.695 -0.17,70.47 
		-0.17,67.22 14.536,67.87 41.91,67.652 99.876,68.141 	"/>
	<path fill-rule="evenodd" clip-rule="evenodd" fill="#040404" d="M75.614,41.587c0.65,0.018,1.168-0.474,1.909-0.333
		c1.216,0.231,1.553,0.473,1.521,1.729c-0.021,0.816-0.255,1.576-0.698,2.254c-0.165,0.253-0.176,0.416-0.011,0.684
		c0.361,0.583,0.727,1.176,0.829,1.881c0.04,1.115,0.009,2.235,0.27,3.332c-0.282,0.495-0.209,1.046-0.229,1.579
		c-0.024,0.672,0.104,1.31,0.33,1.952c0.243,0.692,0.037,1.442-0.014,2.147c-0.072,0.982,0.16,1.969-0.209,2.967
		c-0.408,1.104-0.534,2.303-0.424,3.502c-0.012,0.077-0.022,0.153-0.035,0.23c-0.2,1.185,0.645,2.11,0.774,3.21
		c0.083,0.701,0.431,0.914,1.127,0.922c3.213,0.038,6.418-0.178,9.628-0.205c1.126-0.009,2.274,0.062,3.375-0.081
		c2.016-0.265,4.041-0.308,6.059-0.506c0,1.144,0,2.288,0,3.432c-1.697-0.006-3.394,0.015-5.089-0.02
		c-4.496-0.091-8.992-0.209-13.488-0.307c-0.998-0.022-1.024,0.04-0.831,0.999c0.129,0.629,0.399,1.251,0.193,1.911
		c-0.189,0.61,0.128,0.812,0.649,0.926c0.81,0.178,1.663-0.09,2.439,0.159c1.111,0.355,2.291,0.456,3.395,0.529
		c2.953,0.194,5.919,0.432,8.894,0.19c1.269-0.104,2.567-0.165,3.838,0.134c0,4.68-0.012,9.359,0.015,14.038
		c0.002,0.535-0.104,0.639-0.632,0.639c-31.21-0.017-62.419-0.015-93.628-0.015c0.015-0.659-0.633-0.521-1.09-0.846
		c0.789-0.085,1.434-0.144,2.076-0.225c1.586-0.202,3.166-0.514,4.761-0.021c0.55,0.17,1.354-0.321,1.461-0.811l0.032-0.002
		c0.226,0.082,0.444,0.067,0.654-0.055c2.382,0.128,4.742-0.173,7.105-0.393c0.398-0.037,0.83,0.018,1.17-0.281
		c0.543-0.031,1.101,0.119,1.629-0.119c0.507,0.126,0.986,0.119,1.503-0.06c0.69-0.239,1.491-0.312,2.095,0.102
		c1.008,0.691,1.982,0.25,3.095,0.317c-0.295-0.409-0.853-0.331-0.8-0.554c0.206-0.884-0.485-0.487-0.772-0.586
		c-0.284-0.098-0.63,0.111-1.026-0.079c1.467-0.809,3.088-0.544,4.519-1.119c-1.753,0.275-3.481,0.408-5.334-0.324
		c0.446-0.043,0.742-0.062,1.035-0.102c0.223-0.03,0.59,0.068,0.638-0.146c0.159-0.713,0.587-0.469,0.987-0.354
		c0.187,0.054,0.296,0.014,0.373-0.221c-0.604-0.214-1.194-0.464-2.03-0.548c0.793-0.511,1.421-0.929,2.063-1.323
		c0.184-0.112,0.512-0.087,0.394-0.437c-0.104-0.306-0.385-0.214-0.598-0.171c-1.121,0.225-2.17,0.81-3.469,0.562
		c0.512,0.484,1.047,0.41,1.595,0.512c-0.334,0.207-0.741-0.04-0.95,0.359c0.268,0.192,0.531-0.247,0.734,0.067
		c-1.068,0.854-2.04,0.85-2.811-0.017c-0.202-0.227-0.116-0.412,0.072-0.605c0.157-0.159,0.475-0.077,0.546-0.427
		c-0.475-0.079-1.032-0.321-1.276,0.252c-0.195,0.457-0.47,0.564-0.873,0.715c-0.517,0.192-1.007,0.359-1.564,0.284
		c-0.2-0.027-0.474-0.007-0.49,0.251c-0.015,0.24-0.025,0.361-0.277,0.232c-0.165-0.084-0.203-0.266-0.104-0.4
		c0.323-0.441,0.565-1.042,1.318-0.721c0.274,0.116,0.66,0.284,0.871,0.037c1.016-1.183,1.118-1.265,2.393-1.346
		c0.128-0.009,0.257,0.001,0.384-0.014c0.151-0.018,0.242-0.117,0.188-0.266c-0.064-0.179-0.259-0.243-0.376-0.131
		c-0.589,0.562-1.075,0.264-1.561-0.148c0.982,0.024,1.93-0.147,2.845-0.509c0.226,0.01,0.438-0.084,0.518-0.275
		c0.288-0.695,0.887-0.772,1.504-0.833c0.18-0.027,0.359-0.055,0.539-0.082c-0.002,0.33-0.527,0.085-0.493,0.515
		c1.105-0.155,2.25,0.318,3.393-0.221c-0.312-0.338-0.602,0.025-0.87-0.144c0.193-0.172,0.366-0.354,0.272-0.641
		c0.997,0.055,1.902-0.329,2.775-0.709c0.755-0.328,1.438-0.486,2.179-0.068c0.336,0.382,0.693,0.747,1.003,1.149
		c0.613,0.793,1.001,0.92,1.961,0.655c1.034-0.283,2.09-0.487,3.111-0.807c0.873-0.273,1.828-0.216,2.644-0.696
		c0.47,0.104,0.888-0.159,1.343-0.205c1.658-0.166,3.307,0.08,4.96,0.019c0.195,0.165,0.417,0.147,0.653,0.13
		c0.865-0.063,1.723-0.142,2.465-0.668c0.135-0.029,0.271-0.06,0.406-0.089c0.08-0.031,0.161-0.062,0.243-0.093
		c1.098-0.312,2.168-0.709,3.339-0.736c1.346-0.033,2.641-0.56,4.01-0.466c0.382,0.025,0.761-0.09,1.076-0.345
		c0.425,0.109,0.837,0.091,1.233-0.116c0.1-0.028,0.199-0.058,0.3-0.086c0.062,0.008,0.122,0.016,0.183,0.023
		c0.049,0.007,0.094-0.004,0.135-0.029c0.431,0.031,0.842,0.004,1.279-0.083c0.81-0.16,1.609-0.337,2.489-0.048
		c0.899,0.294,1.821-0.559,1.719-1.535c-0.08-0.737,0.038-1.374,0.335-2.021c0.131-0.287,0.096-0.609,0.083-0.923
		c-0.022-0.518-0.273-0.711-0.784-0.726c-5.262-0.146-10.522-0.337-15.785-0.457c-3.672-0.083-7.343-0.161-11.009-0.373
		c-0.938-0.055-1.978-0.141-2.417-1.271c2.791,0.016,5.582,0.11,8.372-0.012c0.34,0.167,0.705,0.111,1.062,0.111
		c5.925,0.003,11.852,0.001,17.776,0c0.641,0,1.283-0.009,1.924-0.006c0.438,0.001,0.662-0.171,0.639-0.653
		c-0.024-0.543,0.003-1.088,0.008-1.632c0.032-0.12,0.063-0.24,0.095-0.36c0.036-0.037,0.045-0.08,0.023-0.128
		c0.642-2.137,0.801-4.415,1.853-6.432c0.07-0.134,0.165-0.34-0.001-0.415c-0.312-0.139-0.354,0.193-0.483,0.363
		c-0.134,0.175-0.22,0.465-0.522,0.266c-0.271-0.18-0.068-0.356,0.04-0.519c0.401-0.604,0.665-1.208,0.197-1.915
		c-0.105-0.159-0.164-0.416-0.122-0.6c0.37-1.598-0.636-2.112-1.861-2.467c-0.099-0.027-0.194-0.063-0.29-0.096
		c-0.528-0.347,0.003-1.123-0.573-1.259c-1.008-0.236-2.969-0.223-3.632-1.097c-0.053-0.068-0.185-0.081-0.283-0.107
		c-0.84-0.228-1.681-0.456-2.523-0.674c-0.168-0.043-0.383-0.122-0.509,0.034c-0.149,0.183-0.024,0.386,0.064,0.575
		c0.559,1.184,0.557,1.179-0.699,1.378c-0.245,0.039-0.453-0.028-0.654-0.136c-0.037-0.02-0.024-0.136-0.035-0.207
		c-0.159-0.374-0.62-0.842,0.289-0.862c0.27-0.007,0.312-0.297,0.44-0.475c0.292-0.398,0.299-0.417-0.113-0.57
		c-0.593-0.218-1.195-0.404-1.794-0.603c-0.012-0.085-0.023-0.169-0.036-0.254c0.455,0.075,0.917,0.12,1.36,0.23
		c1.17,0.292,2.33,0.622,3.498,0.916c0.279,0.07,0.603,0.249,0.849-0.089c3.075,1.25,5.389,0.876,6.932,1.25
		c1.442,0.35-0.015-2.112,1.122-3.099c0.307-0.266,0.544-0.621,0.463-1.093c-0.061-0.346-0.062-0.642,0.385-0.786
		c0.306-0.097,0.39-0.273,0.188-0.692c-0.291-0.605-0.102-1.32,0.017-1.994C75.078,42.78,75.944,42.397,75.614,41.587z
		 M75.873,74.333c0.438,0.081,0.894,0.024,1.352-0.033c0.212-0.027,0.395-0.051,0.298-0.38c-0.214-0.726-0.116-1.495-0.242-2.229
		c-0.362-2.118,0.174-1.841-2.162-1.899c-0.51-0.014-0.759,0.187-0.766,0.716c-0.01,0.867-0.37,1.72-0.052,2.604
		c0.125,0.348-0.509,0.778,0.032,1.1c0.36,0.215,0.806,0.083,1.209,0.135C75.643,74.358,75.747,74.339,75.873,74.333z
		 M75.659,64.593c-0.659,0.943-0.801,1.834-0.842,2.678c-0.031,0.6,0.632,0.312,0.994,0.349c0.345,0.034,0.557-0.155,0.429-0.529
		C75.991,66.354,75.854,65.592,75.659,64.593z M29.299,82.967c-0.042,0.022-0.083,0.046-0.124,0.068
		c0.024,0.035,0.049,0.102,0.07,0.101c0.043-0.003,0.083-0.042,0.125-0.067C29.347,83.036,29.324,83.002,29.299,82.967z
		 M26.523,80.691c-0.037-0.026-0.061-0.043-0.083-0.061c0,0.021-0.006,0.052,0.003,0.058C26.458,80.698,26.483,80.691,26.523,80.691
		z"/>
	<path fill-rule="evenodd" clip-rule="evenodd" fill="#040404" d="M-0.444,67.007c3.192,0.098,6.384,0.196,9.576,0.288
		c0.406,0.012,0.817,0.075,1.219-0.048c1.158,0.033,2.316,0.067,3.476,0.102c0.112,0.382,0.577,0.129,0.84,0.565
		C9.56,67.713,4.557,67.517-0.444,67.319C-0.444,67.216-0.444,67.111-0.444,67.007z"/>
	<path fill-rule="evenodd" clip-rule="evenodd" fill="#040404" d="M-0.444,88.845c0.704,0,1.409,0,2.29,0
		c-0.512,0.263-0.861,0.443-1.21,0.623c-0.154,0-0.313-0.025-0.461,0.005C-0.357,89.578-0.561,89.378-0.444,88.845z"/>
	<path fill-rule="evenodd" clip-rule="evenodd" fill="#040404" d="M60.187,49.054c-1.038-0.253-2.076-0.507-3.114-0.76
		c0.015-0.072,0.028-0.145,0.042-0.217c1.039,0.087,2.038,0.402,3.036,0.723C60.163,48.884,60.175,48.969,60.187,49.054z"/>
	<path fill-rule="evenodd" clip-rule="evenodd" fill="#040404" d="M55.94,47.922c-0.888-0.058-1.714-0.431-2.584-0.578
		c-0.261-0.044-0.546-0.245-0.743,0.123c-0.044,0.082-0.148,0.208-0.184,0.013c-0.151-0.809-0.882-0.495-1.333-0.698
		c-0.658-0.296-1.456-0.195-2.048-0.763c2.312,0.561,4.622,1.122,6.934,1.683C55.969,47.775,55.954,47.848,55.94,47.922z"/>
	<path fill-rule="evenodd" clip-rule="evenodd" fill="#040404" d="M36.902,43.4c1.674,0.339,3.348,0.678,5.022,1.017
		C40.208,44.373,38.578,43.85,36.902,43.4z"/>
	<path fill-rule="evenodd" clip-rule="evenodd" fill="#040404" d="M48.302,45.993c-0.705,0.042-1.345-0.299-2.043-0.204
		c-0.173,0.023-0.284-0.127-0.271-0.302c0.01-0.126,0.134-0.133,0.237-0.106C46.923,45.564,47.657,45.627,48.302,45.993z"/>
	<path fill-rule="evenodd" clip-rule="evenodd" fill="#040404" d="M30.714,42.228c0.003,0.036,0.005,0.071,0.006,0.106
		c-0.803-0.137-1.605-0.274-2.408-0.411C29.132,41.902,29.941,41.946,30.714,42.228z"/>
	<path fill-rule="evenodd" clip-rule="evenodd" fill="#040404" d="M43.923,44.938c-0.568,0.229-0.883-0.125-1.259-0.201
		C43.079,44.589,43.44,44.79,43.923,44.938z"/>
	<path fill-rule="evenodd" clip-rule="evenodd" fill="#040404" d="M44.796,45.298c-0.161-0.05-0.322-0.101-0.57-0.177
		C44.537,44.956,44.708,45.004,44.796,45.298z"/>
	<path fill-rule="evenodd" clip-rule="evenodd" fill="#040404" d="M18.674,82.885c0.08,0.096,0.22,0.189,0.225,0.289
		c0.008,0.161-0.17,0.146-0.29,0.158c-0.247,0.022-0.448-0.064-0.591-0.274C18.236,83,18.455,82.942,18.674,82.885z"/>
	<path fill-rule="evenodd" clip-rule="evenodd" fill="#040404" d="M26.017,84.23c-0.118,0.432-0.493,0.355-0.822,0.508
		c0.45,0.036,0.833,0.068,1.217,0.1c0.001,0.082,0.003,0.163,0.004,0.245c-1.315-0.06-2.608,0.307-4.059,0.093
		c0.316-0.348,0.614-0.228,0.869-0.272c0.448-0.078,0.899,0.113,1.209-0.586C24.654,83.823,25.452,83.878,26.017,84.23z"/>
	<path fill-rule="evenodd" clip-rule="evenodd" fill="#040404" d="M20.13,83.306c-0.123,0.055-0.19,0.111-0.239,0.099
		c-0.089-0.023-0.221-0.072-0.24-0.14c-0.041-0.14,0.092-0.169,0.191-0.142C19.927,83.146,19.999,83.219,20.13,83.306z"/>
	<path fill="#FFFFFF" d="M66.027,61.263"/>
</g>
</svg>
