<?xml version="1.0" encoding="utf-8"?>
<!-- Generator: Adobe Illustrator 16.0.0, SVG Export Plug-In . SVG Version: 6.00 Build 0)  -->
<!DOCTYPE svg PUBLIC "-//W3C//DTD SVG 1.1//EN" "http://www.w3.org/Graphics/SVG/1.1/DTD/svg11.dtd">
<svg version="1.1" id="Layer_2" xmlns="http://www.w3.org/2000/svg" xmlns:xlink="http://www.w3.org/1999/xlink" x="0px" y="0px"
	 width="100px" height="100px" viewBox="0 0 100 100" enable-background="new 0 0 100 100" xml:space="preserve">
<path id="horizontal" fill="none" stroke="#0000FF" stroke-miterlimit="10" d="M-1,0.25c8.613,0,8.613,8,17.225,8
	c8.61,0,8.61-8,17.221-8c8.613,0,8.613,8,17.227,8s8.613-8,17.228-8s8.614,8,17.229,8s8.615-8,17.229-8v3.226
	c-8.614,0-8.614,8-17.229,8s-8.615-8-17.229-8s-8.614,8-17.228,8s-8.613-8-17.227-8c-8.61,0-8.61,8-17.221,8
	c-8.612,0-8.612-8-17.225-8v3.225c8.613,0,8.613,8,17.225,8c8.61,0,8.61-8,17.221-8c8.613,0,8.613,8,17.227,8s8.613-8,17.228-8
	s8.614,8,17.229,8s8.615-8,17.229-8v3.227c-8.614,0-8.614,8-17.229,8s-8.615-8-17.229-8s-8.614,8-17.228,8s-8.613-8-17.227-8
	c-8.61,0-8.61,8-17.221,8c-8.612,0-8.612-8-17.225-8v3.226c8.613,0,8.613,8,17.225,8c8.61,0,8.61-8,17.221-8
	c8.613,0,8.613,8,17.227,8s8.613-8,17.228-8s8.614,8,17.229,8s8.615-8,17.229-8v3.226c-8.614,0-8.614,8-17.229,8s-8.615-8-17.229-8
	s-8.614,8-17.228,8s-8.613-8-17.227-8c-8.61,0-8.61,8-17.221,8c-8.612,0-8.612-8-17.225-8v3.226c8.613,0,8.613,8,17.225,8
	c8.61,0,8.61-8,17.221-8c8.613,0,8.613,8,17.227,8s8.613-8,17.228-8s8.614,8,17.229,8s8.615-8,17.229-8v3.227
	c-8.614,0-8.614,8-17.229,8s-8.615-8-17.229-8s-8.614,8-17.228,8s-8.613-8-17.227-8c-8.61,0-8.61,8-17.221,8
	c-8.612,0-8.612-8-17.225-8v3.226c8.613,0,8.613,8,17.225,8c8.61,0,8.61-8,17.221-8c8.613,0,8.613,8,17.227,8s8.613-8,17.228-8
	s8.614,8,17.229,8s8.615-8,17.229-8v3.226c-8.614,0-8.614,8-17.229,8s-8.615-8-17.229-8s-8.614,8-17.228,8s-8.613-8-17.227-8
	c-8.61,0-8.61,8-17.221,8c-8.612,0-8.612-8-17.225-8v3.225c8.613,0,8.613,8,17.225,8c8.61,0,8.61-8,17.221-8
	c8.613,0,8.613,8,17.227,8s8.613-8,17.228-8s8.614,8,17.229,8s8.615-8,17.229-8v3.227c-8.614,0-8.614,8-17.229,8s-8.615-8-17.229-8
	s-8.614,8-17.228,8s-8.613-8-17.227-8c-8.61,0-8.61,8-17.221,8c-8.612,0-8.612-8-17.225-8v3.225c8.613,0,8.613,8,17.225,8
	c8.61,0,8.61-8,17.221-8c8.613,0,8.613,8,17.227,8s8.613-8,17.228-8s8.614,8,17.229,8s8.615-8,17.229-8v3.227
	c-8.614,0-8.614,8-17.229,8s-8.615-8-17.229-8s-8.614,8-17.228,8s-8.613-8-17.227-8c-8.61,0-8.61,8-17.221,8
	c-8.612,0-8.612-8-17.225-8v3.226c8.613,0,8.613,8,17.225,8c8.61,0,8.61-8,17.221-8c8.613,0,8.613,8,17.227,8s8.613-8,17.228-8
	s8.614,8,17.229,8s8.615-8,17.229-8v3.226c-8.614,0-8.614,8-17.229,8s-8.615-8-17.229-8s-8.614,8-17.228,8s-8.613-8-17.227-8
	c-8.61,0-8.61,8-17.221,8c-8.612,0-8.612-8-17.225-8l0,3.226c8.612,0,8.612,8,17.225,8c8.61,0,8.61-8,17.221-8
	c8.614,0,8.614,8,17.227,8s8.613-8,17.227-8c8.615,0,8.615,8,17.23,8s8.615-8,17.229-8v3.227c-8.614,0-8.614,8-17.229,8
	s-8.615-8-17.229-8s-8.614,8-17.228,8s-8.613-8-17.227-8c-8.61,0-8.61,8-17.221,8c-8.612,0-8.612-8-17.225-8l0,3.226
	c8.612,0,8.612,8,17.225,8c8.61,0,8.61-8,17.22-8c8.613,0,8.613,8,17.227,8s8.613-8,17.228-8s8.614,8,17.229,8s8.615-8,17.229-8
	v3.227c-8.614,0-8.614,8-17.229,8s-8.615-8-17.229-8s-8.614,8-17.228,8s-8.613-8-17.227-8c-8.61,0-8.61,8-17.221,8
	c-8.612,0-8.612-8-17.225-8v3.225c8.613,0,8.613,8,17.225,8c8.61,0,8.61-8,17.221-8c8.613,0,8.613,8,17.227,8s8.613-8,17.228-8
	s8.614,8,17.229,8s8.615-8,17.229-8v3.227c-8.614,0-8.614,8-17.229,8s-8.615-8-17.229-8s-8.614,8-17.228,8s-8.613-8-17.227-8
	c-8.61,0-8.61,8-17.221,8c-8.612,0-8.612-8-17.225-8v3.226c8.613,0,8.613,8,17.225,8c8.61,0,8.61-8,17.221-8
	c8.613,0,8.613,8,17.227,8s8.613-8,17.228-8s8.614,8,17.229,8s8.615-8,17.229-8v3.226c-8.614,0-8.614,8-17.229,8s-8.615-8-17.229-8
	s-8.614,8-17.228,8s-8.613-8-17.227-8c-8.61,0-8.61,8-17.221,8c-8.612,0-8.612-8-17.225-8l0,3.226c8.612,0,8.612,8,17.225,8
	c8.61,0,8.61-8,17.221-8c8.614,0,8.614,8,17.227,8s8.613-8,17.227-8c8.615,0,8.615,8,17.23,8s8.615-8,17.229-8v3.227
	c-8.614,0-8.614,8-17.229,8s-8.615-8-17.229-8s-8.614,8-17.228,8s-8.613-8-17.227-8c-8.61,0-8.61,8-17.221,8
	c-8.612,0-8.612-8-17.225-8l0,3.226c8.612,0,8.612,8,17.225,8c8.61,0,8.61-8,17.221-8c8.614,0,8.614,8,17.227,8s8.613-8,17.227-8
	c8.615,0,8.615,8,17.23,8c8.614,0,8.614-8,17.229-8l-0.001,3.227c-8.614,0-8.614,8-17.229,8s-8.615-8-17.229-8s-8.614,8-17.228,8
	s-8.613-8-17.227-8c-8.61,0-8.61,8-17.221,8c-8.612,0-8.612-8-17.225-8v3.225c8.613,0,8.613,8,17.225,8c8.61,0,8.61-8,17.221-8
	c8.613,0,8.613,8,17.227,8s8.613-8,17.228-8s8.614,8,17.229,8s8.615-8,17.229-8v3.226c-8.614,0-8.614,8-17.229,8s-8.615-8-17.229-8
	s-8.614,8-17.228,8s-8.613-8-17.227-8c-8.61,0-8.61,8-17.221,8c-8.612,0-8.612-8-17.225-8l103.359,3.228c-8.614,0-8.614,8-17.229,8
	s-8.615-8-17.229-8s-8.614,8-17.228,8s-8.613-8-17.227-8c-8.61,0-8.61,8-17.221,8c-8.612,0-8.612-8-17.225-8v3.225
	c8.613,0,8.613,8,17.225,8c8.61,0,8.61-8,17.221-8c8.613,0,8.613,8,17.227,8s8.613-8,17.228-8s8.614,8,17.229,8s8.615-8,17.229-8"/>
<path id="vertical" fill="none" stroke="#0000FF" stroke-miterlimit="10" d="M15.839,3.003c0,8.333-8,8.333-8,16.665
	c0,8.331,8,8.331,8,16.661c0,8.333-8,8.333-8,16.667s8,8.334,8,16.667c0,8.335-8,8.335-8,16.67s8,8.335,8,16.67h-4.607
	c0-8.335-8-8.335-8-16.67s8-8.335,8-16.67c0-8.333-8-8.333-8-16.667s8-8.334,8-16.667c0-8.33-8-8.33-8-16.661
	c0-8.332,8-8.332,8-16.665H6.625c0,8.333-8,8.333-8,16.665c0,8.331,8,8.331,8,16.661c0,8.333-8,8.333-8,16.667s8,8.334,8,16.667
	c0,8.335-8,8.335-8,16.67s8,8.335,8,16.67h13.822c0-8.335-8-8.335-8-16.67s8-8.335,8-16.67c0-8.333-8-8.333-8-16.667
	s8-8.334,8-16.667c0-8.33-8-8.33-8-16.661c0-8.332,8-8.332,8-16.665h4.607c0,8.333-8,8.333-8,16.665c0,8.331,8,8.331,8,16.661
	c0,8.333-8,8.333-8,16.667s8,8.334,8,16.667c0,8.335-8,8.335-8,16.67s8,8.335,8,16.67h4.607c0-8.335-8-8.335-8-16.67
	s8-8.335,8-16.67c0-8.333-8-8.333-8-16.667s8-8.334,8-16.667c0-8.33-8-8.33-8-16.661c0-8.332,8-8.332,8-16.665h4.607
	c0,8.333-8,8.333-8,16.665c0,8.331,8,8.331,8,16.661c0,8.333-8,8.333-8,16.667s8,8.334,8,16.667c0,8.335-8,8.335-8,16.67
	s8,8.335,8,16.67h4.607c0-8.335-8-8.335-8-16.67s8-8.335,8-16.67c0-8.333-8-8.333-8-16.667s8-8.334,8-16.667c0-8.33-8-8.33-8-16.661
	c0-8.332,8-8.332,8-16.665h4.607c0,8.333-8,8.333-8,16.665c0,8.331,8,8.331,8,16.661c0,8.333-8,8.333-8,16.667s8,8.334,8,16.667
	c0,8.335-8,8.335-8,16.67s8,8.335,8,16.67h4.607c0-8.335-8-8.335-8-16.67s8-8.335,8-16.67c0-8.333-8-8.333-8-16.667
	s8-8.334,8-16.667c0-8.33-8-8.33-8-16.661c0-8.332,8-8.332,8-16.665h4.607c0,8.333-8,8.333-8,16.665c0,8.331,8,8.331,8,16.661
	c0,8.333-8,8.333-8,16.667s8,8.334,8,16.667c0,8.335-8,8.335-8,16.67s8,8.335,8,16.67h4.607c0-8.335-8-8.335-8-16.67
	s8-8.335,8-16.67c0-8.333-8-8.333-8-16.667s8-8.334,8-16.667c0-8.33-8-8.33-8-16.661c0-8.332,8-8.332,8-16.665h4.606
	c0,8.333-8,8.333-8,16.665c0,8.331,8,8.331,8,16.661c0,8.333-8,8.333-8,16.667s8,8.334,8,16.667c0,8.335-8,8.335-8,16.67
	s8,8.335,8,16.67h4.607c0-8.335-8-8.335-8-16.67s8-8.335,8-16.67c0-8.333-8-8.333-8-16.667s8-8.334,8-16.667c0-8.33-8-8.33-8-16.661
	c0-8.332,8-8.332,8-16.665h4.607c0,8.333-8,8.333-8,16.665c0,8.331,8,8.331,8,16.661c0,8.333-8,8.333-8,16.667s8,8.334,8,16.667
	c0,8.335-8,8.335-8,16.67s8,8.335,8,16.67h4.607c0-8.335-8-8.335-8-16.67s8-8.335,8-16.67c0-8.333-8-8.333-8-16.667
	s8-8.334,8-16.667c0-8.33-8-8.33-8-16.661c0-8.332,8-8.332,8-16.665h4.606c0,8.333-8,8.333-8,16.665c0,8.331,8,8.331,8,16.661
	c0,8.333-8,8.333-8,16.667s8,8.334,8,16.667c0,8.335-8,8.335-8,16.67s8,8.335,8,16.67h4.607c0-8.335-8-8.335-8-16.67
	s8-8.335,8-16.67c0-8.333-8-8.333-8-16.667s8-8.334,8-16.667c0-8.33-8-8.33-8-16.661c0-8.332,8-8.332,8-16.665h4.607
	c0,8.333-8,8.333-8,16.665c0,8.331,8,8.331,8,16.661c0,8.333-8,8.333-8,16.667s8,8.334,8,16.667c0,8.335-8,8.335-8,16.67
	s8,8.335,8,16.67h4.607c0-8.335-8-8.335-8-16.67s8-8.335,8-16.67c0-8.333-8-8.333-8-16.667s8-8.334,8-16.667c0-8.33-8-8.33-8-16.661
	c0-8.332,8-8.332,8-16.665h4.606c0,8.333-8,8.333-8,16.665c0,8.331,8,8.331,8,16.661c0,8.333-8,8.333-8,16.667s8,8.334,8,16.667
	c0,8.335-8,8.335-8,16.67s8,8.335,8,16.67h4.607c0-8.335-8-8.335-8-16.67s8-8.335,8-16.67c0-8.333-8-8.333-8-16.667
	s8-8.334,8-16.667c0-8.33-8-8.33-8-16.661c0-8.332,8-8.332,8-16.665"/>
<path id="white" fill="#FFFFFF" d="M0,0v100h100V0H0z M49.5,84.5c-23.334,0-42.25-6.548-42.25-14.625S26.166,55.25,49.5,55.25
	s42.25,6.548,42.25,14.625S72.834,84.5,49.5,84.5z"/>
</svg>
